<svg width="780" height="913" viewBox="0 0 780 913" fill="none" xmlns="http://www.w3.org/2000/svg">
<path d="M178.021 911.581C134.448 903.569 110.295 891.938 87.5733 868.018C68.816 848.277 56.8299 828.272 43.7251 794.847C25.197 747.587 10.0563 670.174 4.23351 592.932C-0.390691 531.636 -0.800622 392.538 3.45878 332.469C10.1362 238.293 25.8328 163.698 51.3649 104.823C67.6556 67.2566 89.168 39.6747 114.617 23.7384C126.651 16.1993 152.173 7.08292 170.204 3.88315C204.394 -2.19327 268.261 0.238695 293.974 8.59422L299.619 10.4286L299.602 451.513L299.581 892.594L287.956 897.576C264.186 907.763 246.085 911.188 212.764 911.81C196.046 912.126 180.412 912.022 178.021 911.581Z" fill="white" stroke="#FEFEFE"/>
<path d="M474.2 478.737C453.219 476.601 430.324 471.455 411.643 464.674C391.819 457.479 382.633 448.988 379.503 434.966C377.904 427.798 377.557 384.388 378.068 254.862L378.742 84.204L382.966 76.7309C397.697 50.6846 479.678 26.5735 541.051 30.2354C654.481 37.0101 741.927 97.406 769.273 187.865C777.229 214.199 779.581 232.901 778.469 261.039C776.183 318.777 756.62 365.238 717.68 405.414C683.921 440.239 640.695 463.037 586.243 474.735C569.307 478.373 560.447 479.127 528.05 479.679C507.031 480.037 482.798 479.616 474.2 478.737Z" fill="url(#paint0_linear_77_4334)" stroke="#FBD545"/>
<defs>
<linearGradient id="paint0_linear_77_4334" x1="389.387" y1="69.3511" x2="745.158" y2="418.472" gradientUnits="userSpaceOnUse">
<stop stop-color="#FBD545"/>
<stop offset="1" stop-color="#FFB624"/>
</linearGradient>
</defs>
</svg>
